<svg xmlns="http://www.w3.org/2000/svg" width="265" height="32" viewBox="0 0 265 32" fill="none"><g clip-path="url(#clip0_5_7)"><path fill-rule="evenodd" clip-rule="evenodd" d="M16.929 21.1936C15.9839 26.2145 12.2136 31.8589 6.31941 31.8589C-2.20558 31.8589 -0.0856843 21.8583 1.25246 15.6253C2.54914 9.58453 5.14262 1.03115 12.9584 1.03115C18.2654 1.03115 20.0316 5.2304 19.0491 10.21H16.497C16.9686 6.72096 16.3771 3.30624 12.4082 3.30624C6.20165 3.30624 4.51196 12.2497 3.68886 16.2097C2.74578 20.7206 0.621802 29.5836 7.10543 29.5836C11.5065 29.5836 13.4712 24.8021 14.375 21.1934L16.929 21.1936Z" fill="white"></path><path fill-rule="evenodd" clip-rule="evenodd" d="M32.6869 19.8187L31.9796 4.95573H31.8989L24.8279 19.8187H32.6869ZM34.1016 1.7376L35.7499 31.1531H33.1585L32.7634 22.094H23.8084L19.4859 31.1531H17.0103L31.1546 1.7376H34.1016Z" fill="white"></path><path fill-rule="evenodd" clip-rule="evenodd" d="M44.6333 15.0368H49.1108C49.9753 15.0368 54.3784 14.723 55.5179 9.46464C56.4197 5.15392 54.6907 4.01227 50.6825 4.01227H46.9909L44.6333 15.0368ZM44.1617 17.3119L41.2146 31.154H38.6604L44.9083 1.73856H50.6062C55.9875 1.73856 59.3669 3.30549 58.1115 9.26987C57.4808 12.1333 55.5552 15.5047 52.2938 16.1737V16.25C55.5181 17.113 55.4374 19.7411 54.6908 23.4263C54.455 24.8384 53.1583 30.0162 54.455 30.8028L54.3785 31.1538H51.5865C50.9971 28.6805 52.1759 23.6616 52.451 21.5083C53.0404 17.5836 50.1325 17.3112 46.7946 17.3112L44.1617 17.3119Z" fill="white"></path><path fill-rule="evenodd" clip-rule="evenodd" d="M57.6803 31.1531L63.9291 1.73813H77.2849L76.8137 4.01323H66.0096L63.7699 14.6037H73.5931L73.0802 16.8789H63.2581L60.7043 28.8779H71.7071L71.2359 31.1531H57.6803Z" fill="white"></path><path fill-rule="evenodd" clip-rule="evenodd" d="M75.1264 31.1531L81.3742 1.73813H94.7311L94.2588 4.01323H83.4547L81.215 14.6037H91.0393L90.5264 16.8789H80.7043L78.1504 28.8779H89.1533L88.681 31.1531H75.1264Z" fill="white"></path><path fill-rule="evenodd" clip-rule="evenodd" d="M98.3877 15.0368H102.867C103.732 15.0368 108.131 14.723 109.27 9.46464C110.174 5.15392 108.445 4.01227 104.439 4.01227H100.745L98.3877 15.0368ZM97.9141 17.3119L94.9711 31.154H92.4148L98.6627 1.73856H104.361C109.742 1.73856 113.121 3.30549 111.864 9.26987C111.235 12.1333 109.31 15.5047 106.05 16.1737V16.25C109.27 17.113 109.194 19.7411 108.445 23.4263C108.209 24.8384 106.915 30.0162 108.209 30.8028L108.131 31.1538H105.341C104.753 28.6805 105.93 23.6616 106.205 21.5083C106.795 17.5836 103.889 17.3112 100.549 17.3112L97.9141 17.3119Z" fill="white"></path><path fill-rule="evenodd" clip-rule="evenodd" d="M111.514 31.1531L117.754 1.73813H134.028L132.81 7.62197H123.46L122.317 12.8395H130.919L129.668 18.7232H121.056L118.427 31.1531H111.514Z" fill="white"></path><path fill-rule="evenodd" clip-rule="evenodd" d="M146.68 10.2903C147.075 8.48394 147.389 6.32651 145.108 6.32651C142.909 6.32651 142.163 8.48394 141.77 10.2903L139.216 22.3682C138.823 24.057 138.589 26.5653 140.827 26.5653C143.066 26.5653 143.735 24.057 144.127 22.3682L146.68 10.2903ZM151.159 21.7815C149.745 28.4066 146.68 31.8585 139.687 31.8585C132.695 31.8585 131.005 28.4066 132.418 21.7815L134.974 9.81781C136.153 4.16928 140.198 1.03328 146.247 1.03328C152.299 1.03328 154.892 4.16928 153.713 9.81781L151.159 21.7815Z" fill="white"></path><path fill-rule="evenodd" clip-rule="evenodd" d="M158.583 1.73792H165.499L160.784 23.9395C160.469 25.3517 160.668 26.5635 162.631 26.5635C164.438 26.5635 165.303 24.9966 165.578 23.7413L170.254 1.73813H177.168L172.651 23.0352C171.59 28.0169 168.525 31.859 161.451 31.859C155.599 31.859 152.769 29.0761 154.066 23.0352L158.583 1.73792Z" fill="white"></path><path fill-rule="evenodd" clip-rule="evenodd" d="M183.737 14.6816L183.662 14.7616L180.788 31.1541H174.227L180.478 1.73685H187.584L189.432 18.1728H189.55L192.381 1.73685H198.942L192.691 31.1541H185.618L183.737 14.6816Z" fill="white"></path><path fill-rule="evenodd" clip-rule="evenodd" d="M204.242 25.8592C208.801 26.173 209.233 24.2901 209.94 20.3676L212.023 10.7594C212.689 7.30752 211.591 7.11339 208.248 7.03296L204.242 25.8592ZM196.187 31.1526L202.437 1.73717H209.94C212.455 1.73717 215.481 1.81769 217.443 3.11211C219.762 4.68117 219.605 7.54464 219.015 10.3668L216.227 23.4271C215.557 26.3711 214.184 28.5285 211.905 29.7817C209.861 30.9605 207.622 31.1525 205.498 31.1525L196.187 31.1526Z" fill="white"></path><path fill-rule="evenodd" clip-rule="evenodd" d="M228.413 14.2496H230.769C232.773 14.2496 233.635 12.406 233.991 10.6036C234.739 7.11253 233.323 6.95563 229.943 7.032L228.413 14.2496ZM224.798 31.1541H217.882L224.13 1.73653H234.226C239.885 1.73653 242.243 4.01163 240.983 9.85835C240.317 12.9964 239.097 15.2302 235.916 16.5639V16.6403C237.724 17.0718 238.822 18.4076 238.51 20.4473C238.195 22.7987 237.174 27.8589 237.174 29.7417C237.25 30.1319 237.37 30.487 237.606 30.7615L237.525 31.1538H229.985C229.904 30.6046 229.865 30.0555 229.943 29.4671C230.376 26.8782 231.044 24.4462 231.24 22.6438C231.439 20.8374 231.124 19.6606 229.552 19.5429H227.273L224.798 31.1541Z" fill="white"></path><path fill-rule="evenodd" clip-rule="evenodd" d="M251.675 11.3472H251.75L257.328 1.73856H264.252L253.524 18.7979L250.884 31.1541H243.971L246.61 18.7979L243.266 1.73856H250.265L251.675 11.3472Z" fill="white"></path></g><defs><clipPath id="clip0_5_7"><rect width="265" height="32" fill="white"></rect></clipPath></defs></svg>