<svg xmlns="http://www.w3.org/2000/svg" width="213" height="41" viewBox="0 0 213 41" fill="none"><path d="M18.4781 9.67806C6.85067 8.7398 0 17.0244 0 22.7179C0 27.509 4.13505 31.3938 9.2348 31.3938C14.3346 31.3938 18.4696 27.509 18.4696 22.7179C18.4696 18.4458 15.1803 14.8924 10.8497 14.1737H10.8455C12.3712 11.6304 15.1973 9.86971 18.4781 9.69403V9.67407V9.67806ZM41.5885 9.67806C29.9653 8.7398 23.1104 17.0205 23.1104 22.7179C23.1104 27.509 27.2454 31.3938 32.3452 31.3938C37.4449 31.3938 41.58 27.509 41.58 22.7179C41.58 18.4458 38.2906 14.8924 33.9601 14.1737H33.9558C35.4815 11.6304 38.3076 9.86971 41.5885 9.69403V9.67407V9.67806ZM52.2257 0H54.1339V41H52.2257V20.5V0Z" fill="#AA8FFF"></path><path d="M94.0989 13.8503C88.9184 13.8503 84.9491 18.5057 84.9491 24.3788C84.9491 30.2519 88.4764 34.9911 94.0989 34.9911C98.2935 34.9911 100.797 31.1742 101.511 29.4135L100.661 28.9503C100.168 29.5372 98.472 31.4257 94.7661 31.4257C91.685 31.4257 89.0077 28.575 89.0077 23.7919C89.0077 23.6641 89.0077 23.5404 89.0119 23.4126H101.685V22.5741C101.685 20.3103 100.257 13.8503 94.0947 13.8503H94.0989ZM89.1012 21.8595C89.5346 17.3398 91.5065 15.0241 93.7887 15.0241C96.7805 15.0241 97.3585 18.9249 97.4478 21.8595H89.1012ZM210.123 30.751V5.96493H209.719L203.289 8.48027V9.36263C204.806 9.15103 205.745 9.61417 205.745 11.4188V15.6709C204.615 14.1577 202.953 13.8503 201.504 13.8503C196.145 13.8503 192.129 18.5496 192.129 24.798C192.129 30.5034 195.478 34.9472 199.762 34.9472C202.571 34.9472 204.445 33.4859 205.745 31.9767V34.5679H212.485V33.6855C210.475 33.5578 210.118 32.887 210.118 30.751H210.123ZM201.776 31.8849C198.295 31.8849 196.506 27.9003 196.506 23.1211C196.506 18.342 198.516 15.0281 201.729 15.0281C203.829 15.0281 205.745 16.9166 205.745 20.0628V30.4755C204.789 31.3978 203.438 31.8889 201.772 31.8889L201.776 31.8849ZM77.8052 9.1111C81.732 9.1111 83.5637 10.7481 85.6163 14.4811L86.6873 13.9781L84.1884 7.56197H64.9028V8.56811C67.1807 8.69188 68.7404 9.61816 68.7404 12.7603V29.8726C68.7404 32.9749 67.1765 33.4779 64.9028 33.6057V34.5719H77.8477V33.6057C74.7666 33.4779 73.2494 32.9749 73.2494 29.8726V22.0711H77.3122C79.7219 22.0711 80.0363 22.9534 80.6143 25.341H81.732V17.0803H80.6143C80.0321 19.4719 79.7219 20.3503 77.3122 20.3503H73.2494V9.1111H77.801H77.8052ZM154.454 30.751V14.0579H154.051L147.621 16.5733V17.4556C149.138 17.244 150.077 17.7072 150.077 19.5118V30.224C149.112 31.0904 147.583 31.9687 146.282 31.9687C143.783 31.9687 142.398 29.7888 142.398 27.1457V14.0619H141.952L135.568 16.5773V17.4596C137.086 17.248 137.978 17.7112 137.978 19.5158V27.5689C137.978 33.8173 141.816 34.9512 143.783 34.9512C145.751 34.9512 148.101 33.7095 150.077 31.7372V34.5759H156.817V33.6935C154.807 33.5658 154.45 32.895 154.45 30.759L154.454 30.751ZM182.669 13.8503C177.535 13.8503 173.519 18.5057 173.519 24.3788C173.519 30.2519 177.089 34.9911 182.669 34.9911C186.863 34.9911 189.367 31.1742 190.08 29.4135L189.231 28.9503C188.784 29.5372 187.042 31.4257 183.336 31.4257C180.255 31.4257 177.62 28.575 177.62 23.7919C177.62 23.6641 177.62 23.5404 177.624 23.4126H190.255V22.5741C190.255 20.3103 188.827 13.8503 182.665 13.8503H182.669ZM177.714 21.8595C178.147 17.3398 180.11 15.0241 182.354 15.0241C185.346 15.0241 185.924 18.9249 186.06 21.8595H177.714ZM171.42 13.8503C169.286 13.8503 166.991 16.0183 165.393 18.6614V14.0619H164.99L158.56 16.5773V17.4596C160.077 17.248 161.016 17.7112 161.016 19.5158V30.755C161.016 32.895 160.659 33.5658 158.649 33.6895V34.5719H168.649V33.6895C165.882 33.5618 165.389 32.891 165.389 30.755V20.3463C166.18 19.1445 167.535 17.7551 168.56 17.7551C169.584 17.7551 170.255 18.7612 171.683 18.7612C173.111 18.7612 174.182 17.8788 174.182 16.3696C174.182 14.7766 173.154 13.8543 171.415 13.8543L171.42 13.8503ZM119.768 32.4718C118.875 32.4718 118.429 31.5894 118.471 30.0802L118.65 21.0649C118.786 14.7726 115.212 13.8503 112.624 13.8503C108.965 13.8503 103.963 15.9464 103.963 19.3881C103.963 20.9412 104.855 21.4842 105.926 21.4842C106.997 21.4842 107.889 20.478 108.157 18.6334C108.603 15.5312 110.21 14.9004 111.37 14.9004C112.845 14.9004 114.362 16.0742 114.362 20.3942L114.349 22.8057L108.421 24.6743C105.34 25.6405 103.465 27.6927 103.465 30.3358C103.465 32.9789 105.476 34.9911 108.285 34.9911C110.384 34.9911 112.479 33.8133 114.37 31.4098C114.613 33.4101 115.637 34.9512 117.97 34.9512C119.487 34.9512 121.319 33.6097 122.254 32.352L121.582 31.7212C121.047 32.1843 120.465 32.4758 119.751 32.4758L119.768 32.4718ZM110.261 32.0526C108.875 32.0526 107.851 31.2541 107.851 29.6211C107.851 27.8164 109.058 26.2234 111.421 25.2612L114.349 24.0394L114.324 30.1281C112.964 31.3858 111.391 32.0566 110.261 32.0566V32.0526ZM131.374 32.4718C129.364 32.4718 128.828 31.0864 128.828 28.6549V16.198H134.098V14.3534H128.828V7.93728H128.025C126.865 11.6264 124.587 14.2695 121.774 15.2757V16.198H124.451V29.1979C124.451 32.887 126.283 34.8194 129.27 34.8194C131.459 34.8194 133.554 33.5179 134.451 32.344L133.647 31.6294C133.333 31.9248 132.441 32.4678 131.37 32.4678L131.374 32.4718Z" fill="white"></path></svg>