<svg xmlns="http://www.w3.org/2000/svg" width="287" height="41" viewBox="0 0 287 41" fill="none"><path d="M70.8054 6.36976C70.7604 6.41159 70.7074 6.4439 70.6496 6.46476C70.5919 6.48561 70.5305 6.49458 70.4692 6.49112H59.883C59.7813 6.49112 59.7288 6.54196 59.7288 6.64364V13.1233C59.7288 13.225 59.7796 13.2758 59.883 13.2758H67.0924C67.2334 13.2758 67.345 13.3168 67.4253 13.3972C67.5073 13.4792 67.5467 13.5907 67.5467 13.7317V15.3438C67.5503 15.4049 67.5414 15.4661 67.5205 15.5236C67.4997 15.5812 67.4673 15.6338 67.4253 15.6784C67.3811 15.7204 67.3287 15.7528 67.2715 15.7737C67.2142 15.7946 67.1532 15.8034 67.0924 15.7998H59.883C59.7813 15.7998 59.7288 15.8506 59.7288 15.9523V24.805C59.7326 24.8661 59.7238 24.9273 59.7029 24.9849C59.682 25.0425 59.6495 25.0951 59.6074 25.1396C59.5632 25.1815 59.5109 25.214 59.4536 25.2349C59.3963 25.2557 59.3354 25.2646 59.2745 25.2609H57.2655C57.2042 25.2646 57.1427 25.2557 57.0849 25.2348C57.0271 25.214 56.9742 25.1816 56.9293 25.1396C56.8877 25.0948 56.8557 25.0421 56.8351 24.9846C56.8145 24.9271 56.8059 24.866 56.8096 24.805V4.4198C56.8096 4.27876 56.849 4.16724 56.9293 4.08524C56.9744 4.04356 57.0274 4.01135 57.0851 3.99051C57.1429 3.96966 57.2042 3.96061 57.2655 3.96388H70.4692C70.6118 3.96388 70.7217 4.00488 70.8054 4.08524C70.8468 4.13012 70.8789 4.18284 70.8998 4.24028C70.9206 4.29773 70.9298 4.35876 70.9267 4.4198V6.03192C70.9302 6.0935 70.9213 6.15515 70.9004 6.21319C70.8796 6.27123 70.8472 6.32448 70.8054 6.36976ZM82.2755 9.95972C82.4969 10.0811 82.5806 10.2746 82.5182 10.5386L82.0918 12.5165C82.0689 12.7198 81.9705 12.8215 81.7868 12.8215C81.7047 12.8245 81.6227 12.8139 81.5441 12.7904C81.2096 12.6842 80.8601 12.6327 80.5092 12.6378C80.3561 12.6346 80.203 12.645 80.0517 12.669C79.0988 12.71 78.3116 13.0396 77.6934 13.6596C77.0751 14.2778 76.7668 15.0847 76.7668 16.0786V24.8099C76.7706 24.871 76.7618 24.9323 76.7409 24.9898C76.72 25.0474 76.6875 25.1 76.6454 25.1445C76.6008 25.1863 76.5481 25.2187 76.4906 25.2396C76.4331 25.2604 76.3719 25.2694 76.3108 25.2658H74.3018C74.241 25.2695 74.18 25.2607 74.1228 25.2398C74.0655 25.2189 74.0131 25.1865 73.9689 25.1445C73.8853 25.0641 73.8476 24.9526 73.8476 24.8099V10.2336C73.8476 10.0926 73.8853 9.98104 73.9689 9.90068C74.0131 9.8587 74.0655 9.82626 74.1228 9.80539C74.18 9.78451 74.241 9.77563 74.3018 9.77932H76.3108C76.4519 9.77932 76.5634 9.81868 76.6454 9.90068C76.7274 9.98104 76.7668 10.0926 76.7668 10.2336V11.6342C76.7668 11.7162 76.7815 11.7621 76.8127 11.7719C76.8422 11.7818 76.8766 11.7555 76.9176 11.6948C77.8311 10.3156 79.0677 9.6268 80.6306 9.6268C81.2407 9.6268 81.7884 9.73668 82.2755 9.95972ZM88.0696 24.3671C86.9643 23.6062 86.1886 22.5467 85.7425 21.1872C85.3768 20.0933 85.1947 18.8551 85.1947 17.4758C85.1947 16.0359 85.3653 14.819 85.7113 13.8236C86.1558 12.4853 86.938 11.4357 88.0532 10.6748C89.1701 9.9138 90.4968 9.53496 92.0401 9.53496C93.5013 9.53496 94.774 9.9138 95.8596 10.6748C96.942 11.4357 97.7194 12.4755 98.1852 13.7924C98.5509 14.8272 98.7329 16.0441 98.7329 17.4447C98.7329 18.8633 98.5509 20.1113 98.1852 21.1855C97.7407 22.5451 96.9683 23.6062 95.8744 24.3655C94.7789 25.1264 93.4898 25.5053 92.0106 25.5053C90.4886 25.5069 89.175 25.1281 88.0696 24.3671ZM94.1393 22.2974C94.7477 21.8415 95.184 21.197 95.448 20.3639C95.671 19.5931 95.7826 18.6402 95.7826 17.5054C95.7826 16.3705 95.6809 15.4258 95.4775 14.6747C95.2135 13.8432 94.7772 13.2004 94.1688 12.7428C93.5604 12.2852 92.8191 12.0573 91.9482 12.0573C91.1151 12.0573 90.3984 12.2869 89.79 12.7428C89.1816 13.1987 88.7437 13.8432 88.4796 14.6747C88.2566 15.3848 88.1467 16.3278 88.1467 17.5054C88.1467 18.6812 88.2566 19.6357 88.4796 20.3639C88.7224 21.197 89.1553 21.8399 89.7736 22.2974C90.3919 22.755 91.1381 22.9813 92.0089 22.9813C92.7754 22.9968 93.5251 22.7561 94.1393 22.2974ZM114.159 11.0093C115.133 11.9736 115.62 13.2758 115.62 14.9191V24.8066C115.623 24.8677 115.614 24.9288 115.594 24.9863C115.573 25.0438 115.54 25.0965 115.499 25.1412C115.454 25.1832 115.401 25.2156 115.343 25.2365C115.285 25.2573 115.224 25.2662 115.162 25.2626H113.155C113.094 25.2664 113.033 25.2576 112.975 25.2367C112.918 25.2158 112.865 25.1833 112.821 25.1412C112.778 25.0967 112.746 25.0441 112.725 24.9865C112.704 24.929 112.695 24.8677 112.699 24.8066V15.498C112.699 14.4845 112.404 13.6628 111.817 13.0331C111.23 12.405 110.447 12.0901 109.473 12.0901C108.602 12.0901 107.866 12.3492 107.267 12.8674C106.669 13.384 106.318 14.0794 106.218 14.9519V24.8099C106.221 24.871 106.212 24.9321 106.191 24.9896C106.171 25.0471 106.138 25.0998 106.097 25.1445C106.052 25.1865 105.999 25.2189 105.941 25.2397C105.883 25.2606 105.822 25.2695 105.76 25.2658H103.751C103.69 25.2695 103.63 25.2607 103.572 25.2398C103.515 25.2189 103.463 25.1865 103.418 25.1445C103.376 25.1 103.344 25.0474 103.323 24.9898C103.302 24.9323 103.293 24.871 103.297 24.8099V10.2336C103.297 10.0926 103.336 9.98104 103.418 9.90068C103.463 9.8587 103.515 9.82626 103.572 9.80539C103.63 9.78451 103.69 9.77563 103.751 9.77932H105.76C105.903 9.77932 106.015 9.81868 106.097 9.90068C106.138 9.9451 106.17 9.9975 106.191 10.0547C106.212 10.1119 106.221 10.1728 106.218 10.2336V11.0864C106.218 11.1471 106.238 11.1881 106.279 11.2078C106.316 11.2291 106.349 11.2192 106.369 11.1766C107.222 10.1024 108.499 9.56612 110.203 9.56612C111.866 9.56612 113.186 10.0466 114.159 11.0093ZM128.063 12.0589C128.018 12.1008 127.965 12.1331 127.908 12.154C127.85 12.1749 127.789 12.1838 127.728 12.1803H124.624C124.522 12.1803 124.473 12.2311 124.473 12.3328V20.2737C124.473 21.1462 124.658 21.7644 125.035 22.1302C125.411 22.4959 126.014 22.6779 126.846 22.6779H127.576C127.718 22.6779 127.83 22.7189 127.91 22.7993C127.952 22.8442 127.984 22.8969 128.005 22.9543C128.025 23.0118 128.035 23.0728 128.032 23.1338V24.7164C128.032 25.0018 127.879 25.1625 127.576 25.2035L126.328 25.2347C124.766 25.2347 123.599 24.9608 122.829 24.413C122.057 23.8653 121.673 22.8419 121.673 21.3397V12.3328C121.673 12.2311 121.622 12.1803 121.519 12.1803H119.846C119.785 12.1839 119.724 12.175 119.666 12.1541C119.609 12.1333 119.556 12.1009 119.512 12.0589C119.47 12.0145 119.437 11.9618 119.416 11.9043C119.395 11.8467 119.387 11.7855 119.39 11.7244V10.2336C119.39 10.0926 119.43 9.98104 119.512 9.90068C119.556 9.85874 119.609 9.82633 119.666 9.80547C119.724 9.7846 119.785 9.7757 119.846 9.77932H121.519C121.621 9.77932 121.673 9.72848 121.673 9.6268V6.21888C121.673 6.0762 121.713 5.96632 121.795 5.88432C121.839 5.84234 121.891 5.8099 121.948 5.78903C122.006 5.76815 122.067 5.75927 122.128 5.76296H124.014C124.156 5.76296 124.266 5.80232 124.35 5.88432C124.43 5.96632 124.471 6.0762 124.471 6.21888V9.6268C124.471 9.72848 124.52 9.77932 124.622 9.77932H127.726C127.868 9.77932 127.979 9.81868 128.061 9.90068C128.143 9.98104 128.182 10.0926 128.182 10.2336V11.7244C128.187 11.7854 128.178 11.8467 128.158 11.9043C128.137 11.9619 128.105 12.0146 128.063 12.0589ZM142.211 21.0953C142.313 20.9133 142.424 20.8214 142.546 20.8214C142.647 20.8214 142.737 20.8526 142.818 20.9133L144.067 21.6742C144.23 21.7759 144.31 21.9088 144.31 22.0695L144.249 22.3122C143.71 23.2976 142.903 24.1102 141.921 24.6558C140.919 25.2248 139.746 25.5086 138.406 25.5086C136.966 25.5086 135.749 25.1904 134.754 24.5508C133.762 23.9112 133.011 22.9944 132.504 21.7956C131.995 20.559 131.743 19.1076 131.743 17.4463C131.743 15.9654 131.854 14.8404 132.077 14.0679C132.443 12.6674 133.171 11.5636 134.267 10.7518C135.362 9.94168 136.692 9.5366 138.254 9.5366C140.181 9.5366 141.65 10.0384 142.665 11.0421C143.679 12.0458 144.338 13.5021 144.641 15.4078C144.743 16.1589 144.814 17.0724 144.856 18.1466C144.856 18.4516 144.702 18.6025 144.399 18.6025H134.787C134.685 18.6025 134.633 18.6517 134.633 18.755C134.674 19.5258 134.744 20.0736 134.847 20.3967C135.069 21.2085 135.516 21.8481 136.186 22.3138C136.855 22.7812 137.685 23.0141 138.68 23.0141C140.323 22.9928 141.501 22.3532 142.211 21.0953ZM136.081 12.6985C135.521 13.1249 135.143 13.7137 134.939 14.4632C134.78 15.018 134.688 15.5902 134.667 16.1671C134.667 16.2688 134.716 16.3196 134.818 16.3196H141.726C141.827 16.3196 141.878 16.2688 141.878 16.1671C141.837 15.498 141.776 15.0011 141.696 14.6764C141.519 13.9267 141.096 13.2577 140.496 12.7756C139.897 12.2984 139.151 12.0589 138.259 12.0589C137.366 12.0589 136.637 12.2721 136.081 12.6985ZM160.159 11.0093C161.133 11.9736 161.62 13.2758 161.62 14.9191V24.8066C161.624 24.8677 161.615 24.929 161.594 24.9865C161.574 25.0441 161.541 25.0967 161.499 25.1412C161.455 25.1832 161.402 25.2156 161.345 25.2365C161.288 25.2574 161.227 25.2662 161.166 25.2626H159.157C159.096 25.2662 159.035 25.2573 158.977 25.2364C158.92 25.2155 158.867 25.1831 158.823 25.1412C158.78 25.0967 158.748 25.0441 158.727 24.9865C158.706 24.929 158.697 24.8677 158.701 24.8066V15.498C158.701 14.4845 158.406 13.6628 157.819 13.0331C157.23 12.405 156.449 12.0901 155.475 12.0901C154.603 12.0901 153.87 12.3492 153.269 12.8674C152.669 13.3857 152.322 14.0794 152.218 14.9519V24.8099C152.222 24.871 152.213 24.9323 152.192 24.9898C152.171 25.0474 152.139 25.1 152.097 25.1445C152.053 25.1865 152 25.2189 151.943 25.2398C151.886 25.2607 151.825 25.2695 151.764 25.2658H149.755C149.694 25.2697 149.633 25.2608 149.575 25.24C149.517 25.2191 149.465 25.1866 149.42 25.1445C149.378 25.1 149.346 25.0474 149.325 24.9898C149.304 24.9323 149.295 24.871 149.299 24.8099V10.2336C149.299 10.0926 149.338 9.98104 149.42 9.90068C149.465 9.85857 149.517 9.82607 149.575 9.80519C149.633 9.78431 149.694 9.7755 149.755 9.77932H151.764C151.905 9.77932 152.017 9.81868 152.097 9.90068C152.179 9.98104 152.218 10.0926 152.218 10.2336V11.0864C152.218 11.1471 152.24 11.1881 152.279 11.2078C152.32 11.2291 152.349 11.2192 152.372 11.1766C153.225 10.1024 154.503 9.56612 156.205 9.56612C157.87 9.56612 159.187 10.0466 160.159 11.0093ZM176.105 4.08852C176.149 4.04686 176.202 4.01463 176.259 3.99377C176.316 3.97292 176.377 3.96386 176.438 3.96716H178.447C178.508 3.96411 178.569 3.97327 178.626 3.99411C178.684 4.01495 178.736 4.04705 178.781 4.08852C178.863 4.17052 178.903 4.28204 178.903 4.42308V24.8083C178.906 24.8694 178.898 24.9306 178.877 24.9882C178.856 25.0457 178.823 25.0984 178.781 25.1428C178.737 25.1847 178.684 25.2171 178.627 25.2379C178.569 25.2588 178.508 25.2677 178.447 25.2642H176.438C176.377 25.2679 176.316 25.259 176.259 25.2381C176.201 25.2173 176.149 25.1848 176.105 25.1428C176.021 25.0625 175.983 24.951 175.983 24.8083V24.0178C175.983 23.9571 175.961 23.9161 175.923 23.8964C175.882 23.8768 175.839 23.8866 175.801 23.9276C175.354 24.436 174.831 24.8263 174.234 25.1002C173.637 25.3724 172.981 25.5102 172.272 25.5102C170.811 25.5102 169.599 25.1494 168.636 24.4311C167.672 23.7111 166.967 22.691 166.522 21.3725C166.157 20.359 165.975 19.0617 165.975 17.4791C165.975 15.9982 166.125 14.7715 166.429 13.7973C166.855 12.4591 167.559 11.4144 168.543 10.6633C169.527 9.9138 170.768 9.53824 172.271 9.53824C172.981 9.53824 173.635 9.66944 174.232 9.93348C174.829 10.1959 175.352 10.5829 175.8 11.088C175.838 11.129 175.88 11.1438 175.921 11.134C175.959 11.1241 175.982 11.088 175.982 11.0274V4.42636C175.983 4.28204 176.021 4.16888 176.105 4.08852ZM175.951 17.5054C175.951 15.8408 175.688 14.5435 175.16 13.6104C174.573 12.5755 173.71 12.0589 172.576 12.0589C171.398 12.0589 170.496 12.546 169.868 13.5202C169.218 14.5353 168.894 15.8736 168.894 17.5365C168.894 19.0978 169.148 20.3557 169.655 21.3085C170.242 22.4254 171.216 22.983 172.576 22.983C173.732 22.983 174.612 22.4352 175.221 21.3397C175.708 20.4459 175.951 19.1683 175.951 17.5054ZM191.316 25.1428C191.274 25.0984 191.241 25.0457 191.22 24.9882C191.199 24.9306 191.191 24.8694 191.194 24.8083V4.42308C191.194 4.28204 191.234 4.17052 191.316 4.08852C191.36 4.04686 191.413 4.01463 191.47 3.99377C191.527 3.97292 191.588 3.96386 191.649 3.96716H193.689C193.932 3.96716 194.115 4.06884 194.237 4.2722L199.347 12.4263C199.408 12.5476 199.468 12.5476 199.529 12.4263L204.672 4.2722C204.726 4.17581 204.806 4.09631 204.903 4.04248C205 3.98865 205.109 3.96258 205.22 3.96716H207.257C207.318 3.96411 207.379 3.97327 207.436 3.99411C207.494 4.01495 207.546 4.04705 207.591 4.08852C207.673 4.17052 207.713 4.28204 207.713 4.42308V24.8083C207.716 24.8694 207.708 24.9306 207.687 24.9882C207.666 25.0457 207.633 25.0984 207.591 25.1428C207.547 25.1847 207.494 25.2171 207.436 25.2379C207.379 25.2588 207.318 25.2677 207.257 25.2642H205.248C205.187 25.2679 205.126 25.259 205.069 25.2381C205.011 25.2173 204.959 25.1848 204.915 25.1428C204.831 25.0625 204.793 24.951 204.793 24.8083V9.35292C204.793 9.27092 204.77 9.22664 204.733 9.21516C204.692 9.20532 204.649 9.23156 204.611 9.29224L200.474 16.0458C200.419 16.1423 200.34 16.2219 200.243 16.2757C200.146 16.3296 200.036 16.3556 199.926 16.3508H198.952C198.841 16.3556 198.731 16.3296 198.635 16.2757C198.538 16.2219 198.458 16.1423 198.404 16.0458L194.297 9.29224C194.256 9.23156 194.214 9.20532 194.176 9.21516C194.135 9.22664 194.115 9.27092 194.115 9.35292V24.8083C194.119 24.8694 194.11 24.9305 194.089 24.988C194.068 25.0455 194.036 25.0982 193.994 25.1428C193.949 25.1847 193.896 25.217 193.838 25.2378C193.78 25.2587 193.719 25.2677 193.658 25.2642H191.649C191.588 25.2675 191.527 25.2584 191.47 25.2376C191.413 25.2167 191.36 25.1845 191.316 25.1428ZM223.14 21.0953C223.242 20.9133 223.355 20.8214 223.476 20.8214C223.575 20.8209 223.67 20.8533 223.748 20.9133L224.997 21.6742C225.159 21.7759 225.239 21.9088 225.239 22.0695L225.179 22.3122C224.639 23.2972 223.833 24.1096 222.851 24.6558C221.848 25.2248 220.677 25.5086 219.337 25.5086C217.895 25.5086 216.678 25.1904 215.685 24.5508C214.691 23.9112 213.94 22.9944 213.433 21.7956C212.926 20.559 212.674 19.1076 212.674 17.4463C212.674 15.9654 212.783 14.8404 213.006 14.0679C213.372 12.6674 214.102 11.5636 215.198 10.7518C216.293 9.94168 217.623 9.5366 219.183 9.5366C221.111 9.5366 222.581 10.0384 223.596 11.0421C224.608 12.0458 225.269 13.5021 225.572 15.4078C225.686 16.3169 225.757 17.2308 225.785 18.1466C225.785 18.4516 225.633 18.6025 225.329 18.6025H215.716C215.614 18.6025 215.563 18.6517 215.563 18.755C215.604 19.5258 215.675 20.0736 215.776 20.3967C215.999 21.2085 216.446 21.8481 217.115 22.3138C217.784 22.7812 218.615 23.0141 219.609 23.0141C221.252 22.9928 222.43 22.3532 223.14 21.0953ZM217.008 12.6985C216.45 13.1249 216.07 13.7137 215.868 14.4632C215.708 15.0179 215.616 15.5901 215.594 16.1671C215.594 16.2688 215.644 16.3196 215.747 16.3196H222.653C222.755 16.3196 222.807 16.2688 222.807 16.1671C222.766 15.498 222.705 15.0011 222.625 14.6764C222.447 13.9268 222.024 13.258 221.423 12.7756C220.826 12.2984 220.08 12.0589 219.186 12.0589C218.292 12.0589 217.566 12.2721 217.008 12.6985ZM241.09 11.0093C242.064 11.9736 242.551 13.2758 242.551 14.9191V24.8066C242.555 24.8677 242.546 24.929 242.525 24.9865C242.504 25.0441 242.472 25.0967 242.43 25.1412C242.386 25.1832 242.333 25.2156 242.276 25.2365C242.219 25.2574 242.158 25.2662 242.097 25.2626H240.088C240.027 25.2662 239.966 25.2573 239.908 25.2364C239.85 25.2155 239.798 25.1831 239.753 25.1412C239.711 25.0967 239.679 25.0441 239.658 24.9865C239.637 24.929 239.628 24.8677 239.632 24.8066V15.498C239.632 14.4845 239.337 13.6628 238.75 13.0331C238.161 12.405 237.38 12.0901 236.406 12.0901C235.534 12.0901 234.8 12.3492 234.2 12.8674C233.6 13.3857 233.252 14.0794 233.149 14.9519V24.8099C233.153 24.871 233.144 24.9323 233.123 24.9898C233.102 25.0474 233.07 25.1 233.028 25.1445C232.983 25.1865 232.931 25.2189 232.874 25.2398C232.816 25.2607 232.756 25.2695 232.695 25.2658H230.686C230.625 25.2697 230.563 25.2608 230.506 25.24C230.448 25.2191 230.396 25.1866 230.351 25.1445C230.309 25.1 230.277 25.0474 230.256 24.9898C230.235 24.9323 230.226 24.871 230.23 24.8099V10.2336C230.23 10.0926 230.269 9.98104 230.351 9.90068C230.396 9.85857 230.448 9.82607 230.506 9.80519C230.563 9.78431 230.625 9.7755 230.686 9.77932H232.695C232.836 9.77932 232.947 9.81868 233.028 9.90068C233.11 9.98104 233.149 10.0926 233.149 10.2336V11.0864C233.149 11.1471 233.17 11.1881 233.21 11.2078C233.251 11.2291 233.28 11.2192 233.303 11.1766C234.156 10.1024 235.433 9.56612 237.136 9.56612C238.799 9.56612 240.117 10.0466 241.09 11.0093ZM254.994 12.0589C254.949 12.101 254.897 12.1335 254.839 12.1544C254.782 12.1753 254.72 12.1841 254.659 12.1803H251.556C251.455 12.1803 251.402 12.2311 251.402 12.3328V20.2737C251.402 21.1462 251.591 21.7644 251.966 22.1302C252.342 22.4959 252.944 22.6779 253.777 22.6779H254.507C254.568 22.6749 254.629 22.684 254.686 22.7049C254.744 22.7257 254.796 22.7578 254.841 22.7993C254.923 22.8813 254.963 22.9928 254.963 23.1338V24.7164C254.963 25.0018 254.81 25.1625 254.507 25.2035L253.259 25.2347C251.697 25.2347 250.531 24.9608 249.759 24.413C248.988 23.8653 248.603 22.8419 248.603 21.3397V12.3328C248.603 12.2311 248.553 12.1803 248.452 12.1803H246.777C246.716 12.1841 246.655 12.1753 246.597 12.1544C246.54 12.1335 246.487 12.101 246.443 12.0589C246.401 12.0145 246.368 11.9618 246.347 11.9043C246.326 11.8467 246.318 11.7855 246.321 11.7244V10.2336C246.321 10.0926 246.361 9.98104 246.443 9.90068C246.487 9.85857 246.54 9.82607 246.597 9.80519C246.655 9.78431 246.716 9.7755 246.777 9.77932H248.452C248.553 9.77932 248.603 9.72848 248.603 9.6268V6.21888C248.603 6.0762 248.644 5.96632 248.724 5.88432C248.769 5.84233 248.822 5.80991 248.88 5.78905C248.937 5.76818 248.999 5.75931 249.06 5.76296H250.946C251.087 5.76296 251.199 5.80232 251.279 5.88432C251.361 5.96632 251.401 6.0762 251.401 6.21888V9.6268C251.401 9.72848 251.451 9.77932 251.555 9.77932H254.658C254.8 9.77932 254.912 9.81868 254.992 9.90068C255.034 9.9451 255.066 9.9975 255.087 10.0547C255.108 10.1119 255.117 10.1728 255.113 10.2336V11.7244C255.118 11.7854 255.11 11.8467 255.089 11.9043C255.068 11.9619 255.036 12.0146 254.994 12.0589ZM261.519 24.3671C260.414 23.6062 259.64 22.5467 259.194 21.1872C258.828 20.0933 258.646 18.8551 258.646 17.4758C258.646 16.0359 258.817 14.819 259.161 13.8236C259.605 12.4853 260.388 11.4357 261.505 10.6748C262.621 9.9138 263.948 9.53496 265.491 9.53496C266.953 9.53496 268.224 9.9138 269.309 10.6748C270.393 11.4357 271.171 12.4755 271.636 13.7924C272.002 14.8272 272.184 16.0441 272.184 17.4447C272.184 18.8633 272.002 20.1113 271.636 21.1855C271.19 22.5451 270.42 23.6062 269.326 24.3655C268.23 25.1264 266.941 25.5053 265.46 25.5053C263.938 25.5069 262.625 25.1281 261.519 24.3671ZM267.589 22.2974C268.197 21.8415 268.634 21.197 268.899 20.3639C269.121 19.5931 269.232 18.6402 269.232 17.5054C269.232 16.3705 269.131 15.4258 268.927 14.6747C268.665 13.8432 268.229 13.2004 267.62 12.7428C267.012 12.2852 266.27 12.0573 265.398 12.0573C264.566 12.0573 263.848 12.2869 263.24 12.7428C262.631 13.1987 262.195 13.8432 261.931 14.6747C261.708 15.3848 261.596 16.3278 261.596 17.5054C261.596 18.6812 261.708 19.6357 261.931 20.3639C262.174 21.197 262.605 21.8399 263.223 22.2974C263.842 22.755 264.588 22.9813 265.459 22.9813C266.225 22.9968 266.975 22.7561 267.589 22.2974ZM285.176 9.95972C285.399 10.0811 285.481 10.2746 285.419 10.5386L284.993 12.5165C284.971 12.7198 284.871 12.8215 284.688 12.8215C284.606 12.8245 284.524 12.8139 284.445 12.7904C284.11 12.6842 283.761 12.6327 283.41 12.6378C283.207 12.6378 283.056 12.6493 282.954 12.669C282 12.71 281.214 13.0396 280.596 13.6596C279.978 14.2778 279.668 15.0847 279.668 16.0786V24.8099C279.671 24.871 279.663 24.9323 279.642 24.9898C279.621 25.0474 279.588 25.1 279.546 25.1445C279.502 25.1865 279.45 25.2189 279.392 25.2398C279.335 25.2607 279.274 25.2695 279.213 25.2658H277.204C277.143 25.2697 277.082 25.2608 277.024 25.24C276.967 25.2191 276.914 25.1866 276.87 25.1445C276.828 25.1 276.795 25.0474 276.774 24.9898C276.753 24.9323 276.745 24.871 276.748 24.8099V10.2336C276.748 10.0926 276.788 9.98104 276.87 9.90068C276.914 9.85857 276.967 9.82607 277.024 9.80519C277.082 9.78431 277.143 9.7755 277.204 9.77932H279.213C279.354 9.77932 279.466 9.81868 279.546 9.90068C279.628 9.98104 279.668 10.0926 279.668 10.2336V11.6342C279.668 11.7162 279.684 11.7621 279.713 11.7719C279.743 11.7818 279.779 11.7555 279.82 11.6948C280.734 10.3156 281.97 9.6268 283.531 9.6268C284.141 9.6268 284.689 9.73668 285.176 9.95972Z" fill="white"></path><path d="M40.6097 19.9539C40.4363 19.954 40.2647 19.9176 40.1062 19.8473L29.5479 15.1192C29.3314 15.0219 29.1476 14.8641 29.0187 14.6648C28.8897 14.4654 28.8211 14.2331 28.8211 13.9958C28.8211 13.7584 28.8897 13.5261 29.0187 13.3268C29.1476 13.1275 29.3314 12.9697 29.5479 12.8724L40.1062 8.16064C40.4043 8.02833 40.7426 8.01945 41.0471 8.13593C41.3517 8.25241 41.5978 8.48478 41.7315 8.7822C41.8637 9.08044 41.8723 9.41892 41.7555 9.72352C41.6387 10.0281 41.406 10.274 41.1083 10.4074L33.0641 13.9974L41.1099 17.6005C41.3672 17.7152 41.5773 17.9147 41.7051 18.1657C41.8329 18.4168 41.8707 18.7041 41.8121 18.9796C41.7536 19.2551 41.6022 19.5022 41.3834 19.6796C41.1645 19.8569 40.8914 19.9537 40.6097 19.9539Z" fill="#67BECE"></path><path d="M26.2203 37.1066C14.6124 37.1066 4.46408 29.2707 1.54652 18.0498C1.46431 17.7343 1.51083 17.399 1.67584 17.1177C1.84084 16.8365 2.11082 16.6323 2.42638 16.5501C2.74194 16.4679 3.07723 16.5144 3.35849 16.6794C3.63976 16.8444 3.84395 17.1144 3.92616 17.4299C5.21321 22.3622 8.1001 26.7281 12.1345 29.8437C16.1689 32.9593 21.1229 34.6485 26.2203 34.6466C26.5465 34.6466 26.8594 34.7762 27.0901 35.0069C27.3207 35.2376 27.4503 35.5504 27.4503 35.8766C27.4503 36.2029 27.3207 36.5157 27.0901 36.7464C26.8594 36.9771 26.5465 37.1066 26.2203 37.1066Z" fill="#3F54A3"></path><path d="M21.9826 26.8927C21.6563 26.8927 21.3435 26.7631 21.1128 26.5325C20.8822 26.3018 20.7526 25.9889 20.7526 25.6627V2.28124C20.7526 1.95502 20.8822 1.64217 21.1128 1.4115C21.3435 1.18083 21.6563 1.05124 21.9826 1.05124C22.3088 1.05124 22.6216 1.18083 22.8523 1.4115C23.083 1.64217 23.2126 1.95502 23.2126 2.28124V25.6627C23.2126 25.9889 23.083 26.3018 22.8523 26.5325C22.6216 26.7631 22.3088 26.8927 21.9826 26.8927Z" fill="#67BECE"></path><path d="M68.4044 40.6687C68.2428 40.6691 68.0828 40.6374 67.9336 40.5755C67.7844 40.5136 67.649 40.4226 67.5352 40.3079L62.1675 34.9386L56.7998 40.3063C56.6855 40.4205 56.5499 40.5112 56.4006 40.573C56.2513 40.6348 56.0913 40.6667 55.9297 40.6667C55.7682 40.6667 55.6082 40.6348 55.4589 40.573C55.3096 40.5112 55.174 40.4205 55.0597 40.3063C54.9455 40.192 54.8548 40.0564 54.793 39.9071C54.7312 39.7578 54.6993 39.5978 54.6993 39.4363C54.6993 39.2747 54.7312 39.1147 54.793 38.9654C54.8548 38.8161 54.9455 38.6805 55.0597 38.5662L61.2983 32.3277C61.4124 32.2134 61.5479 32.1228 61.697 32.061C61.8461 31.9991 62.006 31.9673 62.1675 31.9673C62.3289 31.9673 62.4888 31.9991 62.6379 32.061C62.7871 32.1228 62.9226 32.2134 63.0367 32.3277L69.2752 38.5679C69.4477 38.7399 69.5652 38.9593 69.6128 39.1982C69.6605 39.437 69.6361 39.6847 69.5428 39.9097C69.4496 40.1347 69.2916 40.327 69.0889 40.4621C68.8862 40.5973 68.648 40.6692 68.4044 40.6687Z" fill="#F9C7C5"></path><path d="M80.8782 40.6687C80.7167 40.6689 80.5567 40.6372 80.4075 40.5752C80.2584 40.5133 80.1229 40.4225 80.009 40.3079L74.6413 34.9386L69.2752 40.3063C69.161 40.4205 69.0253 40.5112 68.8761 40.573C68.7268 40.6348 68.5668 40.6667 68.4052 40.6667C68.2436 40.6667 68.0836 40.6348 67.9344 40.573C67.7851 40.5112 67.6494 40.4205 67.5352 40.3063C67.4209 40.192 67.3303 40.0564 67.2685 39.9071C67.2066 39.7578 67.1748 39.5978 67.1748 39.4363C67.1748 39.2747 67.2066 39.1147 67.2685 38.9654C67.3303 38.8161 67.4209 38.6805 67.5352 38.5662L73.7721 32.3277C74.0074 32.1057 74.3186 31.982 74.6421 31.982C74.9656 31.982 75.2769 32.1057 75.5121 32.3277L81.7507 38.5679C81.9233 38.74 82.0408 38.9595 82.0884 39.1986C82.136 39.4376 82.1115 39.6854 82.018 39.9105C81.9245 40.1356 81.7663 40.3278 81.5633 40.4628C81.3604 40.5978 81.122 40.6695 80.8782 40.6687Z" fill="#F9C7C5"></path><path d="M93.3554 40.6687C93.1936 40.6692 93.0333 40.6375 92.8838 40.5756C92.7343 40.5136 92.5986 40.4227 92.4845 40.3079L87.1185 34.9386L81.7507 40.3063C81.6365 40.4205 81.5008 40.5112 81.3516 40.573C81.2023 40.6348 81.0423 40.6667 80.8807 40.6667C80.7191 40.6667 80.5591 40.6348 80.4099 40.573C80.2606 40.5112 80.125 40.4205 80.0107 40.3063C79.8964 40.192 79.8058 40.0564 79.744 39.9071C79.6822 39.7578 79.6503 39.5978 79.6503 39.4363C79.6503 39.2747 79.6822 39.1147 79.744 38.9654C79.8058 38.8161 79.8964 38.6805 80.0107 38.5662L86.2493 32.3277C86.4799 32.0973 86.7925 31.968 87.1185 31.968C87.4444 31.968 87.757 32.0973 87.9877 32.3277L94.2246 38.5679C94.3969 38.7398 94.5144 38.959 94.5621 39.1978C94.6098 39.4365 94.5856 39.684 94.4925 39.909C94.3994 40.1339 94.2417 40.3262 94.0393 40.4614C93.8368 40.5967 93.5988 40.6688 93.3554 40.6687Z" fill="#F9C7C5"></path><path d="M105.828 40.6687C105.666 40.6689 105.507 40.6371 105.358 40.5752C105.209 40.5132 105.074 40.4224 104.96 40.3079L99.5923 34.9386L94.2246 40.3063C94.1103 40.4205 93.9747 40.5112 93.8254 40.573C93.6761 40.6348 93.5161 40.6667 93.3545 40.6667C93.193 40.6667 93.033 40.6348 92.8837 40.573C92.7344 40.5112 92.5988 40.4205 92.4845 40.3063C92.3703 40.192 92.2796 40.0564 92.2178 39.9071C92.156 39.7578 92.1241 39.5978 92.1241 39.4363C92.1241 39.2747 92.156 39.1147 92.2178 38.9654C92.2796 38.8161 92.3703 38.6805 92.4845 38.5662L98.7214 32.3277C98.9567 32.1057 99.268 31.982 99.5915 31.982C99.9149 31.982 100.226 32.1057 100.461 32.3277L106.702 38.5679C106.874 38.7401 106.992 38.9598 107.039 39.199C107.087 39.4382 107.062 39.6861 106.969 39.9112C106.875 40.1364 106.716 40.3286 106.513 40.4635C106.31 40.5984 106.071 40.6698 105.828 40.6687Z" fill="#F9C7C5"></path><path d="M118.305 40.6687C118.143 40.6689 117.983 40.6372 117.834 40.5752C117.685 40.5133 117.549 40.4225 117.435 40.3079L112.066 34.9386L106.702 40.3063C106.587 40.4205 106.452 40.5112 106.302 40.573C106.153 40.6348 105.993 40.6667 105.832 40.6667C105.67 40.6667 105.51 40.6348 105.361 40.573C105.212 40.5112 105.076 40.4205 104.962 40.3063C104.847 40.192 104.757 40.0564 104.695 39.9071C104.633 39.7578 104.601 39.5978 104.601 39.4363C104.601 39.2747 104.633 39.1147 104.695 38.9654C104.757 38.8161 104.847 38.6805 104.962 38.5662L111.199 32.3277C111.434 32.1057 111.745 31.982 112.069 31.982C112.392 31.982 112.703 32.1057 112.939 32.3277L119.177 38.5679C119.35 38.74 119.467 38.9595 119.515 39.1986C119.562 39.4376 119.538 39.6854 119.444 39.9105C119.351 40.1356 119.193 40.3278 118.99 40.4628C118.787 40.5978 118.548 40.6695 118.305 40.6687Z" fill="#F9C7C5"></path><path d="M130.778 40.6687C130.617 40.6691 130.457 40.6374 130.308 40.5755C130.158 40.5136 130.023 40.4226 129.909 40.3079L124.542 34.9386L119.175 40.3063C119.061 40.4205 118.926 40.5112 118.776 40.573C118.627 40.6348 118.467 40.6667 118.305 40.6667C118.144 40.6667 117.984 40.6348 117.835 40.573C117.685 40.5112 117.55 40.4205 117.435 40.3063C117.321 40.192 117.231 40.0564 117.169 39.9071C117.107 39.7578 117.075 39.5978 117.075 39.4363C117.075 39.2747 117.107 39.1147 117.169 38.9654C117.231 38.8161 117.321 38.6805 117.435 38.5662L123.672 32.3277C123.908 32.1057 124.219 31.982 124.542 31.982C124.866 31.982 125.177 32.1057 125.412 32.3277L131.651 38.5679C131.824 38.74 131.941 38.9595 131.989 39.1986C132.036 39.4376 132.012 39.6854 131.918 39.9105C131.825 40.1356 131.667 40.3278 131.464 40.4628C131.261 40.5978 131.022 40.6695 130.778 40.6687Z" fill="#F9C7C5"></path><path d="M143.254 40.6687C143.092 40.6689 142.932 40.6372 142.783 40.5752C142.634 40.5133 142.499 40.4225 142.385 40.3079L137.017 34.9386L131.651 40.3063C131.537 40.4205 131.401 40.5112 131.252 40.573C131.102 40.6348 130.943 40.6667 130.781 40.6667C130.619 40.6667 130.459 40.6348 130.31 40.573C130.161 40.5112 130.025 40.4205 129.911 40.3063C129.797 40.192 129.706 40.0564 129.644 39.9071C129.582 39.7578 129.551 39.5978 129.551 39.4363C129.551 39.2747 129.582 39.1147 129.644 38.9654C129.706 38.8161 129.797 38.6805 129.911 38.5662L136.148 32.3277C136.383 32.1057 136.694 31.982 137.018 31.982C137.341 31.982 137.653 32.1057 137.888 32.3277L144.126 38.5679C144.299 38.74 144.417 38.9595 144.464 39.1986C144.512 39.4376 144.487 39.6854 144.394 39.9105C144.3 40.1356 144.142 40.3278 143.939 40.4628C143.736 40.5978 143.498 40.6695 143.254 40.6687Z" fill="#F9C7C5"></path><path d="M155.729 40.6687C155.568 40.6692 155.407 40.6375 155.258 40.5756C155.108 40.5136 154.973 40.4227 154.859 40.3079L149.493 34.9386L144.125 40.3063C144.011 40.4205 143.875 40.5112 143.726 40.573C143.576 40.6348 143.416 40.6667 143.255 40.6667C143.093 40.6667 142.933 40.6348 142.784 40.573C142.635 40.5112 142.499 40.4205 142.385 40.3063C142.271 40.192 142.18 40.0564 142.118 39.9071C142.056 39.7578 142.024 39.5978 142.024 39.4363C142.024 39.2747 142.056 39.1147 142.118 38.9654C142.18 38.8161 142.271 38.6805 142.385 38.5662L148.623 32.3277C148.854 32.0973 149.167 31.968 149.493 31.968C149.819 31.968 150.131 32.0973 150.362 32.3277L156.599 38.5679C156.771 38.7398 156.889 38.959 156.936 39.1978C156.984 39.4365 156.96 39.684 156.867 39.909C156.774 40.1339 156.616 40.3262 156.413 40.4614C156.211 40.5967 155.973 40.6688 155.729 40.6687Z" fill="#F9C7C5"></path><path d="M168.202 40.6687C168.04 40.6689 167.881 40.6371 167.732 40.5752C167.583 40.5132 167.448 40.4224 167.334 40.3079L161.966 34.9386L156.599 40.3063C156.484 40.4205 156.349 40.5112 156.199 40.573C156.05 40.6348 155.89 40.6667 155.729 40.6667C155.567 40.6667 155.407 40.6348 155.258 40.573C155.108 40.5112 154.973 40.4205 154.859 40.3063C154.744 40.192 154.654 40.0564 154.592 39.9071C154.53 39.7578 154.498 39.5978 154.498 39.4363C154.498 39.2747 154.53 39.1147 154.592 38.9654C154.654 38.8161 154.744 38.6805 154.859 38.5662L161.097 32.3277C161.211 32.2134 161.347 32.1228 161.496 32.061C161.645 31.9991 161.805 31.9673 161.966 31.9673C162.128 31.9673 162.288 31.9991 162.437 32.061C162.586 32.1228 162.721 32.2134 162.836 32.3277L169.074 38.5679C169.247 38.74 169.364 38.9595 169.412 39.1986C169.459 39.4376 169.435 39.6854 169.341 39.9105C169.248 40.1356 169.09 40.3278 168.887 40.4628C168.684 40.5978 168.445 40.6695 168.202 40.6687Z" fill="#F9C7C5"></path><path d="M180.679 40.6687C180.517 40.6689 180.357 40.6372 180.208 40.5752C180.059 40.5133 179.923 40.4225 179.81 40.3079L174.442 34.9386L169.076 40.3063C168.845 40.537 168.532 40.6667 168.206 40.6667C167.879 40.6667 167.566 40.537 167.336 40.3063C167.105 40.0755 166.975 39.7626 166.975 39.4363C166.975 39.1099 167.105 38.797 167.336 38.5662L173.573 32.3277C173.803 32.0973 174.116 31.968 174.442 31.968C174.768 31.968 175.08 32.0973 175.311 32.3277L181.55 38.5679C181.722 38.7399 181.84 38.9593 181.887 39.1982C181.935 39.437 181.91 39.6847 181.817 39.9097C181.724 40.1347 181.566 40.327 181.363 40.4621C181.161 40.5973 180.922 40.6692 180.679 40.6687Z" fill="#F9C7C5"></path></svg>