<svg xmlns="http://www.w3.org/2000/svg" width="205" height="41" viewBox="0 0 205 41" fill="none"><g clip-path="url(#clip0_8_12)"><path d="M61.6522 12.1609H65.4979V29.1936H61.6522V21.9677H55.1938V29.1936H51.3481V12.1609H55.1938V18.6737H61.6522V12.1609Z" fill="white"></path><path d="M74.4764 20.6652C74.4764 21.5004 74.5787 22.2541 74.7841 22.9261C74.9896 23.5982 75.2857 24.1757 75.6721 24.6589C76.0575 25.1428 76.5303 25.515 77.0894 25.777C77.6479 26.0398 78.2886 26.1711 79.0121 26.1711C79.7184 26.1711 80.3554 26.0398 80.9227 25.777C81.489 25.515 81.9661 25.1428 82.3518 24.6589C82.7379 24.1757 83.0343 23.5982 83.2397 22.9261C83.4451 22.2541 83.5479 21.5004 83.5479 20.6652C83.5479 19.8291 83.4451 19.0713 83.2397 18.3911C83.0343 17.7113 82.7379 17.1301 82.3518 16.6463C81.9661 16.163 81.489 15.7898 80.9227 15.5282C80.3554 15.2659 79.7184 15.135 79.0121 15.135C78.2886 15.135 77.6479 15.27 77.0894 15.5402C76.5303 15.8107 76.0575 16.1878 75.6721 16.6713C75.2857 17.1545 74.9896 17.7361 74.7841 18.4158C74.5787 19.0963 74.4764 19.8459 74.4764 20.6652ZM87.5171 20.6652C87.5171 22.1232 87.299 23.4058 86.8644 24.5112C86.4283 25.6175 85.8323 26.5433 85.0768 27.2885C84.3209 28.0346 83.4209 28.5955 82.3775 28.9721C81.3342 29.3496 80.2121 29.5379 79.013 29.5379C77.8459 29.5379 76.7453 29.3496 75.7098 28.9721C74.6744 28.5955 73.7702 28.0346 72.9982 27.2885C72.2253 26.5433 71.618 25.6175 71.1741 24.5112C70.7305 23.4058 70.5081 22.1232 70.5081 20.6652C70.5081 19.2067 70.7384 17.9244 71.1986 16.8187C71.6583 15.7124 72.2792 14.7824 73.0598 14.0287C73.8399 13.275 74.744 12.71 75.7716 12.333C76.7981 11.9556 77.879 11.7669 79.013 11.7669C80.1795 11.7669 81.2803 11.9556 82.3161 12.333C83.3512 12.71 84.255 13.275 85.0274 14.0287C85.7996 14.7824 86.4079 15.7124 86.8515 16.8187C87.2956 17.9244 87.5171 19.2067 87.5171 20.6652Z" fill="white"></path><path d="M97.1868 26.269C97.7291 26.269 98.1768 26.2243 98.5301 26.1335C98.8834 26.0439 99.1671 25.9212 99.3804 25.7644C99.5938 25.6094 99.7421 25.4252 99.8245 25.2121C99.9067 24.9993 99.9479 24.7615 99.9479 24.4993C99.9479 23.9425 99.6845 23.4789 99.1588 23.1109C98.6329 22.7417 97.7291 22.3447 96.4474 21.9179C95.8885 21.7221 95.3296 21.4962 94.7709 21.2425C94.2123 20.989 93.711 20.6693 93.2673 20.2841C92.8241 19.8991 92.4622 19.4321 92.183 18.8824C91.9034 18.334 91.7639 17.6665 91.7639 16.8798C91.7639 16.0932 91.9117 15.3844 92.2075 14.7537C92.5035 14.1227 92.9224 13.5866 93.465 13.1436C94.0071 12.701 94.6641 12.3617 95.4365 12.1236C96.209 11.8864 97.0797 11.7668 98.0496 11.7668C99.1999 11.7668 100.194 11.8905 101.033 12.1359C101.87 12.3817 102.561 12.6525 103.103 12.9474L101.994 15.9705C101.517 15.7247 100.987 15.5074 100.404 15.3188C99.8202 15.1308 99.1178 15.0359 98.2964 15.0359C97.3758 15.0359 96.7143 15.1639 96.3117 15.4175C95.9091 15.6714 95.7074 16.0608 95.7074 16.5846C95.7074 16.8964 95.7819 17.1589 95.9297 17.3713C96.0773 17.5844 96.2873 17.7768 96.5581 17.949C96.8294 18.1209 97.1417 18.2768 97.4954 18.4157C97.848 18.5552 98.2385 18.6983 98.6662 18.8457C99.5532 19.1739 100.326 19.4973 100.983 19.8169C101.64 20.1366 102.187 20.5094 102.623 20.9353C103.058 21.3611 103.382 21.8612 103.596 22.4348C103.809 23.0088 103.917 23.7047 103.917 24.5233C103.917 26.1129 103.357 27.346 102.24 28.2225C101.123 29.0996 99.438 29.5382 97.1868 29.5382C96.4309 29.5382 95.7488 29.4928 95.1408 29.4027C94.5327 29.312 93.9947 29.2017 93.5263 29.0706C93.0581 28.9397 92.6552 28.8006 92.3181 28.6531C91.9813 28.5054 91.698 28.3665 91.4677 28.2349L92.5529 25.1874C93.0617 25.4665 93.6903 25.716 94.4387 25.9366C95.186 26.1583 96.1025 26.269 97.1868 26.269Z" fill="white"></path><path d="M120.858 12.161V15.4301H115.706V29.1938H111.861V15.4301H106.708V12.161H120.858Z" fill="white"></path><path d="M125.129 29.1942H128.975V12.1611H125.129V29.1942Z" fill="white"></path><path d="M146.188 29.1938C145.088 27.2441 143.896 25.319 142.614 23.4178C141.332 21.5168 139.969 19.7228 138.523 18.0349V29.1938H134.726V12.161H137.857C138.398 12.7013 138.998 13.365 139.656 14.1517C140.313 14.9384 140.983 15.7783 141.665 16.6713C142.347 17.5641 143.024 18.49 143.698 19.4482C144.372 20.4068 145.005 21.3282 145.596 22.2131V12.161H149.418V29.1938H146.188Z" fill="white"></path><path d="M163.5 15.1104C161.709 15.1104 160.414 15.606 159.617 16.5972C158.82 17.5887 158.423 18.9442 158.423 20.6654C158.423 21.5003 158.52 22.2588 158.718 22.9385C158.915 23.618 159.211 24.2037 159.605 24.6955C160 25.1873 160.492 25.5684 161.084 25.8389C161.675 26.1091 162.365 26.2441 163.154 26.2441C163.582 26.2441 163.948 26.2359 164.251 26.2198C164.555 26.2035 164.823 26.171 165.052 26.1214V20.1984H168.898V28.6287C168.438 28.8091 167.698 29.0012 166.68 29.2057C165.661 29.4101 164.403 29.5133 162.908 29.5133C161.626 29.5133 160.463 29.3164 159.42 28.9234C158.376 28.5296 157.485 27.9567 156.746 27.2027C156.006 26.4492 155.435 25.523 155.032 24.4253C154.629 23.3283 154.428 22.0745 154.428 20.6654C154.428 19.2395 154.651 17.9778 155.095 16.8797C155.538 15.7823 156.144 14.8516 156.918 14.0901C157.69 13.3281 158.598 12.7507 159.642 12.3575C160.686 11.964 161.798 11.7667 162.982 11.7667C163.787 11.7667 164.514 11.8206 165.163 11.9269C165.812 12.0337 166.371 12.1564 166.84 12.296C167.309 12.4348 167.694 12.5781 167.999 12.7259C168.302 12.8734 168.52 12.9885 168.652 13.0703L167.542 16.1421C167.016 15.8637 166.412 15.6225 165.73 15.4174C165.048 15.2125 164.305 15.1104 163.5 15.1104Z" fill="white"></path><path d="M174.279 29.1938V12.161H185.816V15.3807H178.125V18.7231H184.952V21.8695H178.125V25.9742H186.383V29.1938H174.279Z" fill="white"></path><path d="M196.248 15.2331C195.969 15.2331 195.719 15.2413 195.496 15.2575C195.275 15.2744 195.066 15.2908 194.868 15.3067V19.9272H195.953C197.399 19.9272 198.433 19.7478 199.058 19.3868C199.682 19.0271 199.994 18.4123 199.994 17.5434C199.994 16.7075 199.678 16.1144 199.045 15.7611C198.413 15.4094 197.481 15.2331 196.248 15.2331ZM196.028 11.964C198.592 11.964 200.556 12.4183 201.92 13.3281C203.283 14.2375 203.965 15.6507 203.965 17.5681C203.965 18.7638 203.691 19.7353 203.14 20.4809C202.589 21.226 201.797 21.8123 200.761 22.2379C201.106 22.6643 201.467 23.1516 201.846 23.7005C202.223 24.2497 202.597 24.8233 202.968 25.4214C203.337 26.0194 203.695 26.6418 204.039 27.2886C204.384 27.9364 204.705 28.5713 205 29.1936H200.702C200.387 28.6366 200.07 28.0715 199.749 27.4979C199.427 26.9247 199.097 26.3672 198.76 25.8262C198.422 25.2852 198.086 24.7738 197.758 24.2906C197.427 23.8066 197.097 23.3685 196.767 22.9746H194.869V29.1936H191.024V12.406C191.862 12.2431 192.729 12.1276 193.624 12.0626C194.52 11.9966 195.321 11.964 196.028 11.964Z" fill="white"></path><path d="M0.000341074 19.1962V0.000680318L9.68852 5.16663V13.8151L22.5138 13.8214L32.3591 19.1962H0.000341074ZM25.1364 12.2325V0L35.0858 5.0374V18.0123L25.1364 12.2325ZM25.1363 35.6942V27.1203L12.2122 27.1112C12.2243 27.1684 2.20348 21.6505 2.20348 21.6505L35.0858 21.8048V41L25.1363 35.6942ZM0 35.6942L0.00034469 23.1504L9.68852 28.7933V40.7312L0 35.6942Z" fill="#6A42C8"></path></g><defs><clipPath id="clip0_8_12"><rect width="205" height="41" fill="white"></rect></clipPath></defs></svg>