<svg xmlns="http://www.w3.org/2000/svg" width="139" height="38" viewBox="0 0 139 38" fill="none"><path d="M0.485733 12.7352C2.55585 12.7352 4.62889 12.7352 6.76634 12.7352C6.76634 14.0525 6.76634 15.3357 6.76634 16.7867C8.43531 13.401 11.2462 12.1719 14.7306 12.2458C18.2442 12.3198 20.9116 13.8505 22.4957 16.9404C23.0549 16.2461 23.5644 15.4893 24.1997 14.8548C25.8219 13.2331 27.8598 12.4592 30.1583 12.2743C31.6779 12.1519 33.1741 12.28 34.6236 12.7551C37.3027 13.6286 38.9512 15.495 39.8969 18.0102C40.5763 19.8168 40.7665 21.7031 40.7695 23.6122C40.7752 28.0564 40.7724 32.5004 40.7724 36.9446C40.7724 37.0556 40.7578 37.1693 40.7461 37.3259C38.6993 37.3259 36.6615 37.3259 34.5532 37.3259C34.5532 37.1039 34.5532 36.8848 34.5532 36.6657C34.5532 32.5402 34.5767 28.4177 34.5356 24.2922C34.5269 23.3447 34.4127 22.366 34.1433 21.4584C33.5899 19.6006 32.2899 18.4084 30.2754 18.1865C27.9944 17.9362 26.0533 18.5762 24.7971 20.5907C24.1822 21.5751 23.8777 22.6677 23.866 23.8113C23.8221 28.0648 23.8045 32.3183 23.7811 36.5747C23.7811 36.8166 23.7811 37.0584 23.7811 37.3372C21.673 37.3372 19.6116 37.3372 17.4829 37.3372C17.4829 37.1011 17.4829 36.8792 17.4829 36.6601C17.48 32.2529 17.4917 27.8457 17.4594 23.4387C17.4477 22.016 17.07 20.6646 16.0657 19.5806C14.508 17.8992 12.5375 17.8423 10.5084 18.471C8.1835 19.1908 7.16162 20.952 6.89224 23.1911C6.79855 23.9735 6.79561 24.7702 6.7927 25.5583C6.78391 29.2484 6.78977 32.9415 6.78977 36.6317C6.78977 36.8536 6.78977 37.0783 6.78977 37.3742C4.66109 37.3742 2.57341 37.3742 0.48866 37.3742C0.485733 29.1574 0.485733 20.9463 0.485733 12.7352Z" fill="white"></path><path d="M65.3821 15.6544C65.3821 14.8066 65.3821 13.8051 65.3821 12.7694C67.4872 12.7694 69.534 12.7694 71.6275 12.7694C71.6275 20.9322 71.6275 29.1092 71.6275 37.3259C69.5837 37.3259 67.5254 37.3259 65.4142 37.3259C65.4142 36.2988 65.4142 35.2718 65.4142 34.2106C65.3087 34.2446 65.2414 34.2446 65.2151 34.2788C63.5491 36.4696 61.1861 37.4768 58.5158 37.7869C54.4224 38.2648 50.8589 37.0784 47.9895 34.1622C45.9224 32.0624 44.8741 29.4961 44.5755 26.6225C44.2563 23.564 44.7014 20.6305 46.3615 17.9904C48.9471 13.879 52.8178 12.0382 57.7399 12.263C60.015 12.3683 62.0997 13.0426 63.9033 14.4367C64.4275 14.8435 64.9282 15.2789 65.3821 15.6544ZM57.9332 17.9248C53.907 17.9277 50.8561 20.9578 50.8502 24.9581C50.8444 28.9925 53.9481 32.1478 57.9391 32.1591C62.0352 32.1734 65.2855 28.9897 65.2796 24.9751C65.2707 21.0545 62.0061 17.922 57.9332 17.9248Z" fill="white"></path><path d="M119.275 15.6685C119.275 14.8036 119.275 13.7993 119.275 12.7665C121.38 12.7665 123.427 12.7665 125.517 12.7665C125.517 20.9377 125.517 29.1148 125.517 37.3287C123.465 37.3287 121.406 37.3287 119.295 37.3287C119.295 36.293 119.295 35.2688 119.295 34.1392C118.803 34.6428 118.42 35.1066 117.966 35.4879C115.905 37.2177 113.436 37.9091 110.775 37.892C107.267 37.8692 104.236 36.6315 101.827 34.1194C99.7479 31.9484 98.6995 29.3309 98.4389 26.3918C98.1638 23.2879 98.6732 20.3317 100.43 17.6971C103.033 13.7964 106.822 12.0495 111.571 12.26C113.867 12.3624 115.972 13.0339 117.79 14.4422C118.314 14.8491 118.809 15.2844 119.275 15.6685ZM111.808 17.9248C107.785 17.9304 104.734 20.9633 104.731 24.9637C104.728 28.9952 107.838 32.1505 111.826 32.1591C115.925 32.1675 119.172 28.9838 119.161 24.9693C119.152 21.0487 115.887 17.919 111.808 17.9248Z" fill="white"></path><path d="M95.107 19.8823C93.1247 19.8823 91.1571 19.8823 89.1953 19.8823C88.5569 17.3472 85.8662 16.2888 83.632 17.6773C81.9953 18.6958 82.0333 20.7302 83.7872 21.5125C84.8794 22.0018 86.0916 22.2409 87.2599 22.5624C89.0607 23.0574 90.9023 23.4215 92.5332 24.3861C96.079 26.483 97.0687 30.8844 94.6707 34.1364C93.3852 35.8776 91.5347 36.8422 89.447 37.3856C86.0419 38.2733 82.7301 38.0884 79.6264 36.3442C77.1142 34.9303 75.6766 32.8077 75.4511 29.9597C75.4452 29.8887 75.4599 29.8146 75.4658 29.7122C77.413 29.7122 79.3426 29.7122 81.3219 29.7122C81.5239 31.4022 82.5603 32.3952 84.2265 32.7879C85.585 33.1064 86.9231 32.9898 88.1851 32.3838C89.2626 31.866 89.7341 31.0181 89.6286 29.9739C89.5436 29.1404 89.0196 28.614 88.2846 28.3523C87.2364 27.9796 86.1502 27.7035 85.0697 27.4218C83.3364 26.9694 81.597 26.5541 79.9895 25.7234C76.0601 23.6918 75.4161 19.5037 76.8215 16.7639C77.8141 14.8264 79.4742 13.5802 81.5414 12.9031C85.1342 11.728 88.6477 11.9414 91.9154 13.9046C94.0675 15.1991 95.0688 17.1963 95.1509 19.6376C95.1567 19.7116 95.1304 19.7826 95.107 19.8823Z" fill="white"></path><path d="M137.326 12.7864C137.326 20.9719 137.326 29.1346 137.326 37.3315C135.244 37.3315 133.186 37.3315 131.089 37.3315C131.089 29.1546 131.089 20.9947 131.089 12.7864C133.142 12.7864 135.2 12.7864 137.326 12.7864Z" fill="white"></path><path d="M137.326 12.7864H131.093V29.3509L137.326 21.888V12.7864Z" fill="#ED0331"></path><path d="M134.182 7.24407C136.125 7.24407 137.699 5.71421 137.699 3.82705C137.699 1.93987 136.125 0.410019 134.182 0.410019C132.24 0.410019 130.666 1.93987 130.666 3.82705C130.666 5.71421 132.24 7.24407 134.182 7.24407Z" fill="white"></path></svg>