<svg xmlns="http://www.w3.org/2000/svg" width="136" height="41" viewBox="0 0 136 41" fill="none"><path d="M87.5644 9.48234C81.6216 9.51088 76.7806 14.3953 76.8079 20.477C76.8352 26.5588 81.7246 31.3973 87.6674 31.37C93.6101 31.3427 98.4524 26.457 98.4238 20.3778C98.3953 14.2986 93.5071 9.45629 87.5619 9.48483L87.5644 9.48234ZM87.6463 26.9099C85.9614 26.9198 84.3424 26.2585 83.1452 25.0737C81.9479 23.8889 81.2842 22.2748 81.2656 20.5899C81.2469 18.9051 81.9169 17.2861 83.1017 16.0888C84.2866 14.8916 85.9007 14.2279 87.5855 14.2092C89.2703 14.1906 90.8893 14.8606 92.0866 16.0454C93.2838 17.2302 93.9476 18.8443 93.9662 20.5292C93.9835 23.9099 91.0258 26.8925 87.6463 26.9099ZM111.641 14.6373C108.533 14.6522 106.112 17.2302 106.127 20.3381L106.177 30.741L101.447 30.7633L101.352 10.0903L106.081 10.0679L106.097 13.3098C106.097 13.3098 108.107 10.0593 112.162 10.0406L113.514 10.0332L113.536 14.6261L111.641 14.6373ZM64.4633 10.2664L68.0439 24.4372L71.7609 10.2317L76.4903 10.2106L70.6393 30.9234L66.0464 30.9445L62.3319 16.5057L58.7514 30.978L54.1572 30.9991L47.9812 10.3545L52.5741 10.3334L56.6931 24.5017L60.0057 10.2987L64.4633 10.2664ZM127.334 19.4299C130.566 17.5243 132.848 13.9996 132.83 9.94635L128.1 9.96868C128.118 13.4822 125.292 16.3333 121.914 16.3457L121.238 16.3481L121.164 0L116.434 0.0223314L116.58 30.6914L121.307 30.6703L121.262 20.9435L121.802 20.9411C122.342 20.9386 122.885 21.2066 123.022 21.611L129.685 30.6306L135.224 30.6058L127.334 19.4299Z" fill="white"></path><path d="M37.0336 9.72055C31.901 9.74536 27.9979 13.141 26.5377 18.5515C24.0874 14.78 22.1755 10.4662 21.0788 6.82362L15.6757 6.84843L15.7427 21.1693C15.7486 22.5309 15.2137 23.8392 14.2554 24.8065C13.2972 25.7738 11.994 26.3211 10.6324 26.328C9.27083 26.3339 7.96259 25.799 6.99526 24.8407C6.02793 23.8825 5.48067 22.5793 5.47378 21.2177L5.40554 6.89681L0 6.92163L0.066996 21.2425C0.0955311 27.1853 4.84353 31.8948 10.6548 31.8663C16.466 31.8377 21.1731 27.0873 21.1458 21.1433L21.1334 18.7116C22.2227 20.8666 23.5849 23.1569 25.0824 25.1779L21.7785 41L27.3168 40.9752L29.6989 29.4793C31.8663 30.8217 34.2893 31.6194 37.1378 31.6057C43.0831 31.5772 47.9254 26.6927 47.8943 20.477C47.8717 17.6133 46.7171 14.8747 44.6826 12.8592C42.648 10.8437 39.8987 9.71496 37.0349 9.71931L37.0336 9.72055ZM37.1105 26.0687C34.9493 26.0786 32.7844 25.1432 31.0214 23.6643L31.5512 21.5018V21.3778C31.9482 19.0776 33.1417 15.1546 37.1961 15.1373C38.6257 15.1349 39.9984 15.6972 41.0154 16.7019C42.0324 17.7066 42.6115 19.0724 42.6265 20.5019C42.5049 23.6097 39.9504 26.0538 37.1118 26.0675L37.1105 26.0687Z" fill="#6FDA44"></path></svg>